HIERARCHY
ROOT SpineBase
{
  OFFSET 0.000000 0.000000 0.000000
  CHANNELS 6 Xposition Yposition Zposition Zrotation Xrotation Yrotation
  JOINT SpineMid
  {
    OFFSET 0.000000 28.827950 0.000000
    CHANNELS 3 Zrotation Xrotation Yrotation
    JOINT SpineShoulder
    {
      OFFSET -0.017654 21.454715 -0.564564
      CHANNELS 3 Zrotation Xrotation Yrotation
      JOINT Neck
      {
        OFFSET -0.028678 7.109924 -0.443565
        CHANNELS 3 Zrotation Xrotation Yrotation
        JOINT Head
        {
          OFFSET -1.690792 12.351420 -0.687553
          CHANNELS 3 Zrotation Xrotation Yrotation
          End Site
          {
            OFFSET 0 0 0
          }
        }
      }
      JOINT ShoulderLeft
      {
        OFFSET -15.764261 -2.325303 5.598170
        CHANNELS 3 Zrotation Xrotation Yrotation
        JOINT ElbowLeft
        {
          OFFSET -5.221649 -24.892850 3.507205
          CHANNELS 3 Zrotation Xrotation Yrotation
          JOINT WristLeft
          {
            OFFSET -4.083386 -19.837044 -3.040712
            CHANNELS 3 Zrotation Xrotation Yrotation
            JOINT HandLeft
            {
              OFFSET -0.540728 -7.707451 -1.787124
              CHANNELS 3 Zrotation Xrotation Yrotation
              JOINT HandTipLeft
              {
                OFFSET -0.373731 -6.875500 -1.487664
                CHANNELS 3 Zrotation Xrotation Yrotation
                End Site
                {
                  OFFSET 0 0 0
                }
              }
              JOINT ThumbLeft
              {
                OFFSET -2.350294 0.014739 -1.574947
                CHANNELS 3 Zrotation Xrotation Yrotation
                End Site
                {
                  OFFSET 0 0 0
                }
              }
            }
          }
        }
      }
      JOINT ShoulderRight
      {
        OFFSET 15.444901 -1.848042 -5.209893
        CHANNELS 3 Zrotation Xrotation Yrotation
        JOINT ElbowRight
        {
          OFFSET 6.472883 -26.564405 -1.747672
          CHANNELS 3 Zrotation Xrotation Yrotation
          JOINT WristRight
          {
            OFFSET 1.478915 -19.894849 -4.622166
            CHANNELS 3 Zrotation Xrotation Yrotation
            JOINT HandRight
            {
              OFFSET -0.970832 -8.120451 -0.912474
              CHANNELS 3 Zrotation Xrotation Yrotation
              JOINT HandTipRight
              {
                OFFSET 0.548346 -6.005617 -2.193658
                CHANNELS 3 Zrotation Xrotation Yrotation
                End Site
                {
                  OFFSET 0 0 0
                }
              }
              JOINT ThumbRight
              {
                OFFSET -3.774075 -1.042236 -0.913319
                CHANNELS 3 Zrotation Xrotation Yrotation
                End Site
                {
                  OFFSET 0 0 0
                }
              }
            }
          }
        }
      }
    }
  }
  JOINT HipLeft
  {
    OFFSET -7.386286 0.369379 -1.456915
    CHANNELS 3 Zrotation Xrotation Yrotation
    JOINT KneeLeft
    {
      OFFSET -7.656990 -31.951231 2.163824
      CHANNELS 3 Zrotation Xrotation Yrotation
      JOINT AnkleLeft
      {
        OFFSET -3.363467 -34.759580 5.126198
        CHANNELS 3 Zrotation Xrotation Yrotation
        JOINT FootLeft
        {
          OFFSET -3.173858 -3.886540 -12.396608
          CHANNELS 3 Zrotation Xrotation Yrotation
          End Site
          {
            OFFSET 0 0 0
          }
        }
      }
    }
  }
  JOINT HipRight
  {
    OFFSET 6.827743 0.977224 -4.568231
    CHANNELS 3 Zrotation Xrotation Yrotation
    JOINT KneeRight
    {
      OFFSET 3.278839 -27.399270 2.549579
      CHANNELS 3 Zrotation Xrotation Yrotation
      JOINT AnkleRight
      {
        OFFSET 0.369283 -37.798137 8.644037
        CHANNELS 3 Zrotation Xrotation Yrotation
        JOINT FootRight
        {
          OFFSET -1.422866 -8.236170 -5.098381
          CHANNELS 3 Zrotation Xrotation Yrotation
          End Site
          {
            OFFSET 0 0 0
          }
        }
      }
    }
  }
}
MOTION
Frames: 10
Frame Time: 0.033333
33.673145 72.920412 367.691794 -0.000000 0.000000 12.346772 -0.000000 0.000000 -12.346772 -0.000000 0.000000 0.000000 -0.000000 0.000000 0.000000 0.000000 0.000000 0.000000 -0.000000 0.000000 0.000000 -0.000000 0.000000 0.000000 -0.000000 0.000000 0.000000 -0.000000 0.000000 0.000000 0.000000 0.000000 0.000000 0.000000 0.000000 0.000000 -0.000000 0.000000 0.000000 -0.000000 0.000000 0.000000 -0.000000 0.000000 0.000000 -0.000000 0.000000 0.000000 0.000000 0.000000 0.000000 0.000000 0.000000 0.000000 -0.000000 0.000000 -12.346772 -0.000000 0.000000 0.000000 -0.000000 0.000000 0.000000 0.000000 0.000000 0.000000 -0.000000 0.000000 -12.346772 -0.000000 0.000000 0.000000 -0.000000 0.000000 0.000000 0.000000 0.000000 0.000000
33.687781 72.953069 367.576873 -0.020654 0.084756 11.924783 0.002695 -0.087195 -11.924766 -0.000000 0.000000 0.000000 -0.000000 0.000000 0.000000 0.000000 0.000000 0.000000 -0.000000 0.000000 0.000000 -0.000000 0.000000 0.000000 0.291378 2.715995 -0.263647 -1.094775 -3.548193 0.427722 0.000000 0.000000 0.000000 0.000000 0.000000 0.000000 -0.000000 0.000000 0.000000 -0.000000 0.000000 0.000000 -0.819106 2.025657 -0.135292 0.389431 -5.085005 0.018237 0.000000 0.000000 0.000000 0.000000 0.000000 0.000000 0.002695 -0.087195 -11.924766 -0.000000 0.000000 0.000000 -0.000000 0.000000 0.000000 0.000000 0.000000 0.000000 0.002695 -0.087195 -11.924766 -0.000000 0.000000 0.000000 -1.954037 9.360448 -0.238227 0.000000 0.000000 0.000000
33.702035 72.983327 367.477682 -0.026547 0.165015 11.573217 -0.007098 -0.166986 -11.573189 -0.000000 0.000000 0.000000 -0.000000 0.000000 0.000000 0.000000 0.000000 0.000000 -0.000000 0.000000 0.000000 0.083921 0.951894 -0.209274 0.417755 3.871862 -0.258542 -1.955552 -6.274518 0.689911 0.000000 0.000000 0.000000 0.000000 0.000000 0.000000 -0.000000 0.000000 0.000000 -0.000000 0.000000 0.000000 -1.490725 3.728473 -0.228677 0.586492 -9.123149 0.071637 0.000000 0.000000 0.000000 0.000000 0.000000 0.000000 -0.007098 -0.166986 -11.573189 -0.000000 0.000000 0.000000 0.245143 0.140472 -0.894976 0.000000 0.000000 0.000000 0.382306 0.880450 -11.427415 -0.174203 -1.103814 -0.149877 -3.650027 17.197610 -0.164859 0.000000 0.000000 0.000000
33.715906 73.011184 367.394220 -0.017691 0.240798 11.292349 -0.029803 -0.239601 -11.292374 -0.000000 0.000000 0.000000 -0.000000 0.000000 0.000000 0.000000 0.000000 0.000000 0.253456 0.937384 -0.163262 -0.118622 0.448126 -0.145948 0.498929 4.888862 -0.301529 -2.565899 -8.101327 0.832351 0.000000 0.000000 0.000000 0.000000 0.000000 0.000000 -0.000000 0.000000 0.000000 -0.000000 0.000000 0.000000 -2.013475 5.098945 -0.291993 0.585527 -12.078780 0.158532 0.000000 0.000000 0.000000 0.000000 0.000000 0.000000 -0.029803 -0.239601 -11.292374 -0.000000 0.000000 0.000000 0.337578 0.194297 -1.232243 0.000000 0.000000 0.000000 0.432634 1.061188 -11.113538 -0.286593 -2.400105 -0.215682 -5.092147 24.500008 0.239029 0.000000 0.000000 0.000000
33.729394 73.036642 367.326489 0.005910 0.312125 11.082374 -0.065797 -0.305168 -11.082566 -0.000000 0.000000 0.000000 -0.142033 -0.952515 -0.139439 0.000000 0.000000 0.000000 0.290912 1.125812 -0.198415 -0.098343 0.665148 -0.204311 0.487512 5.249936 -0.277188 -2.909776 -8.981551 0.891485 0.000000 0.000000 0.000000 0.000000 0.000000 0.000000 -0.000000 0.000000 0.000000 -0.000000 0.000000 0.000000 -2.386589 6.132324 -0.334921 0.383089 -13.940999 0.282237 0.000000 0.000000 0.000000 0.000000 0.000000 0.000000 -0.065797 -0.305168 -11.082566 -0.000000 0.000000 0.000000 0.409679 0.237703 -1.496078 0.000000 0.000000 0.000000 0.390324 1.054661 -10.897847 -0.276530 -2.597601 -0.223171 -6.391625 29.508678 0.673348 0.000000 0.000000 0.000000
33.742500 73.059700 367.274487 0.044259 0.379012 10.943429 -0.115408 -0.363717 -10.943942 -0.000000 0.000000 0.000000 -0.446651 -1.095471 -0.179098 0.000000 0.000000 0.000000 0.305493 1.255495 -0.224146 -0.049017 0.912268 -0.266721 0.383016 4.941973 -0.183578 -2.976793 -8.894897 0.889199 0.000000 0.000000 0.000000 0.000000 0.000000 0.000000 -0.000000 0.000000 0.000000 0.897575 0.354411 -0.184727 -3.525743 6.461848 -0.200974 -0.020924 -14.714209 0.451528 0.000000 0.000000 0.000000 0.000000 0.000000 0.000000 -0.115408 -0.363717 -10.943942 -0.000000 0.000000 0.000000 0.461322 0.270984 -1.686538 0.000000 0.000000 0.000000 0.258989 0.862313 -10.780317 -0.212120 -2.486111 -0.196996 -7.515036 33.226352 1.138856 0.000000 0.000000 0.000000
33.753715 73.089927 367.193856 0.090257 0.472138 10.773572 -0.176926 -0.446943 -10.774634 -0.000000 0.000000 0.000000 -0.864461 -1.229287 -0.225778 0.000000 0.000000 0.000000 0.285106 1.215819 -0.218342 0.045232 1.289819 -0.353506 0.551799 2.204129 0.024937 -3.414862 -5.311641 0.859707 0.000000 0.000000 0.000000 0.000000 0.000000 0.000000 -0.000000 0.000000 0.000000 1.216712 0.383724 -0.257834 -3.764829 6.309540 -0.134594 -0.428663 -12.050088 0.801485 0.000000 0.000000 0.000000 0.000000 0.000000 0.000000 -0.176926 -0.446943 -10.774634 -0.000000 0.000000 0.000000 0.518131 0.313703 -1.900500 0.000000 0.000000 0.000000 -0.176926 -0.446943 -10.774634 -0.053296 -0.981532 -0.022191 -9.529997 38.607813 2.137130 0.000000 0.000000 0.000000
33.740174 73.128561 367.146030 0.153595 0.539699 10.728125 -0.251383 -0.501672 -10.729949 -0.000000 0.000000 0.000000 -1.451922 -1.329942 -0.280048 0.000000 0.000000 0.000000 0.245706 1.090950 -0.196924 0.206413 1.706574 -0.454260 0.366165 0.549124 0.224864 -2.934134 -1.432968 0.663173 0.000000 0.000000 0.000000 0.000000 0.000000 0.000000 -0.000000 0.000000 0.000000 1.388421 0.463628 -0.293200 -3.842680 6.559346 -0.153887 -2.051895 -11.212235 1.290643 0.000000 0.000000 0.000000 0.000000 0.000000 0.000000 -0.251383 -0.501672 -10.729949 -0.000000 0.000000 0.000000 0.561572 0.342760 -2.061168 0.000000 0.000000 0.000000 -0.251383 -0.501672 -10.729949 -0.000000 0.000000 0.000000 -9.260533 35.631380 1.950087 0.000000 0.000000 0.000000
33.752139 73.149476 367.124624 0.227131 0.563288 10.745089 -0.328180 -0.511059 -10.747669 -0.000000 0.000000 0.000000 -1.932012 -1.255640 -0.301133 0.000000 0.000000 0.000000 -0.000000 0.000000 0.000000 0.586657 3.016476 -0.724278 -0.572160 -0.444765 0.511703 -0.470414 -1.790514 0.222144 0.000000 0.000000 0.000000 0.000000 0.000000 0.000000 -0.000000 0.000000 0.000000 1.457234 0.412690 -0.312589 -3.871033 6.705170 -0.148111 -1.861007 -10.677203 1.330784 0.000000 0.000000 0.000000 0.000000 0.000000 0.000000 -0.328180 -0.511059 -10.747669 -0.000000 0.000000 0.000000 0.563369 0.341906 -2.066247 0.000000 0.000000 0.000000 -0.328180 -0.511059 -10.747669 -0.000000 0.000000 0.000000 -8.975467 34.112073 1.872010 0.000000 0.000000 0.000000
33.765415 73.168226 367.106130 0.309970 0.520987 10.760722 -0.401803 -0.453942 -10.763723 -0.000000 0.000000 0.000000 -2.405622 -0.952396 -0.284992 0.000000 0.000000 0.000000 0.574440 1.147957 -0.166038 0.079968 1.934258 -0.583439 -0.817125 -1.380261 0.629890 1.253967 -3.669381 0.006522 0.000000 0.000000 0.000000 0.000000 0.000000 0.000000 -0.000000 0.000000 0.000000 1.450716 0.297566 -0.318217 -3.823135 6.641236 -0.124334 -3.126349 -12.159437 1.355444 0.000000 0.000000 0.000000 0.000000 0.000000 0.000000 -0.401803 -0.453942 -10.763723 -0.000000 0.000000 0.000000 0.561234 0.326601 -2.047806 0.000000 0.000000 0.000000 -0.970353 -1.314329 -10.923315 0.395259 0.952478 0.147532 -7.683727 30.660814 1.224099 0.000000 0.000000 0.000000
